# Blender 3.6.0
# www.blender.org
mtllib line.mtl
o Cube
v -0.025261 -0.025261 1.000000
v -0.025261 0.025261 1.000000
v 0.025261 -0.025261 1.000000
v 0.025261 0.025261 1.000000
v -0.025261 -0.025261 -0.000000
v -0.025261 0.025261 -0.000000
v 0.025261 -0.025261 0.000000
v 0.025261 0.025261 0.000000
vn -0.0000 -1.0000 -0.0000
vn 1.0000 -0.0000 -0.0000
vn -0.0000 -0.0000 -1.0000
vn -0.0000 1.0000 -0.0000
vn -0.0000 -0.0000 1.0000
vn -1.0000 -0.0000 -0.0000
vt 0.202750 0.000100
vt 0.202750 0.999900
vt 0.152238 0.999900
vt 0.152238 0.000100
vt 0.050612 0.999900
vt 0.000100 0.999900
vt 0.000100 0.000100
vt 0.050613 0.000100
vt 0.253463 0.000100
vt 0.253463 0.050612
vt 0.202950 0.050612
vt 0.202950 0.000100
vt 0.101525 0.999900
vt 0.101525 0.000100
vt 0.152038 0.000100
vt 0.152038 0.999900
vt 0.202950 0.101325
vt 0.202950 0.050812
vt 0.253463 0.050812
vt 0.253463 0.101325
vt 0.050813 0.000100
vt 0.101325 0.000100
vt 0.101325 0.999900
vt 0.050813 0.999900
s 0
usemtl Material
f 1/1/1 5/2/1 7/3/1 3/4/1
f 4/5/2 3/6/2 7/7/2 8/8/2
f 8/9/3 7/10/3 5/11/3 6/12/3
f 6/13/4 2/14/4 4/15/4 8/16/4
f 2/17/5 1/18/5 3/19/5 4/20/5
f 6/21/6 5/22/6 1/23/6 2/24/6
